<svg xmlns="http://www.w3.org/2000/svg" width="1158" height="137" fill="none"><ellipse cx="579" cy="-401.999" stroke="#091717" stroke-opacity=".05" rx="531" ry="576" transform="rotate(90 579 -401.999)"/><ellipse cx="579" cy="-401.999" stroke="url(#a)" rx="531" ry="576" transform="rotate(90 579 -401.999)"/><ellipse cx="579" cy="-401.999" stroke="url(#b)" rx="531" ry="576" transform="rotate(90 579 -401.999)"/><ellipse cx="578.5" cy="-379.001" stroke="#091717" stroke-opacity=".08" rx="484" ry="458.5" transform="rotate(90 578.5 -379.001)"/><ellipse cx="578.5" cy="-379.001" stroke="url(#c)" rx="484" ry="458.5" transform="rotate(90 578.5 -379.001)"/><ellipse cx="578.5" cy="-385" stroke="#091717" stroke-opacity=".04" rx="466" ry="354.5" transform="rotate(90 578.5 -385)"/><ellipse cx="578.5" cy="-385" stroke="url(#d)" rx="466" ry="354.5" transform="rotate(90 578.5 -385)"/><circle cx="579" cy="-118" r="175" stroke="#091717" stroke-opacity=".08" transform="rotate(-180 579 -118)"/><circle cx="579" cy="-118" r="175" stroke="url(#e)" transform="rotate(-180 579 -118)"/><defs><radialGradient id="a" cx="0" cy="0" r="1" gradientTransform="rotate(141.761 634.035 -63.09) scale(54.243 56.6619)" gradientUnits="userSpaceOnUse"><stop stop-color="#E1385A"/><stop offset="1" stop-color="#944454" stop-opacity="0"/></radialGradient><radialGradient id="b" cx="0" cy="0" r="1" gradientTransform="matrix(-79.18785 -44.49996 46.4528 -82.66293 1043.86 -63.999)" gradientUnits="userSpaceOnUse"><stop stop-color="#1FB8CD"/><stop offset="1" stop-color="#1FB8CD" stop-opacity="0"/></radialGradient><radialGradient id="c" cx="0" cy="0" r="1" gradientTransform="rotate(-105.54 429.237 -537.93) scale(79.9216 51.185)" gradientUnits="userSpaceOnUse"><stop stop-color="#FFD2A6"/><stop offset="1" stop-color="#FFD2A6" stop-opacity="0"/></radialGradient><radialGradient id="d" cx="0" cy="0" r="1" gradientTransform="rotate(151.258 556.236 -163.454) scale(93.1226 135.038)" gradientUnits="userSpaceOnUse"><stop stop-color="#1FB8CD"/><stop offset="1" stop-color="#BADEDD" stop-opacity="0"/></radialGradient><radialGradient id="e" cx="0" cy="0" r="1" gradientTransform="matrix(19.00007 101.0004 -116.36883 21.89116 651.5 -307.001)" gradientUnits="userSpaceOnUse"><stop stop-color="#CACA49"/><stop offset="1" stop-color="#848456" stop-opacity="0"/></radialGradient></defs></svg>