<svg width="500" height="500" viewBox="0 0 500 500" fill="none" xmlns="http://www.w3.org/2000/svg">
<g clip-path="url(#clip0_1_2)">
<circle cx="91.5" cy="151.5" r="3.5" fill="#7DAF6B"/>
<circle cx="408.5" cy="151.5" r="3.5" fill="#4A4A4A"/>
<circle cx="320.5" cy="176.5" r="3.5" fill="#4A4A4A"/>
<circle cx="180.5" cy="176.5" r="3.5" fill="#4A4A4A"/>
<circle cx="213.5" cy="176.5" r="3.5" fill="#4A4A4A"/>
<circle cx="287.5" cy="176.5" r="3.5" fill="#4A4A4A"/>
<circle cx="354.5" cy="201.5" r="3.5" fill="#4A4A4A"/>
<circle cx="146.5" cy="201.5" r="3.5" fill="#4A4A4A"/>
<circle cx="222.5" cy="227.5" r="3.5" fill="#4A4A4A"/>
<circle cx="278.5" cy="227.5" r="3.5" fill="#4A4A4A"/>
<circle cx="91.5" cy="295.5" r="3.5" fill="#7DAF6B"/>
<circle cx="408.5" cy="295.5" r="3.5" fill="#4A4A4A"/>
<circle cx="92.5" cy="345.5" r="3.5" fill="#7DAF6B"/>
<circle cx="407.5" cy="345.5" r="3.5" fill="#4A4A4A"/>
<circle cx="114.5" cy="342.5" r="3.5" fill="#7DAF6B"/>
<circle cx="385.5" cy="342.5" r="3.5" fill="#4A4A4A"/>
<circle cx="418.5" cy="295.5" r="3.5" fill="#4A4A4A"/>
<circle cx="81.5" cy="295.5" r="3.5" fill="#7DAF6B"/>
<path d="M250 100L300 200H200L250 100Z" fill="#7DAF6B"/>
<path d="M250 140C280 140 280 165 290 175C285 185 275 190 265 195C255 200 250 205 250 210C250 215 250 220 250 225C250 230 250 235 250 240C250 245 250 250 250 255C250 260 250 265 250 270C250 275 250 280 250 285C250 290 250 295 250 300C250 305 250 310 250 315C250 320 250 325 250 330C250 335 250 340 250 345C250 350 250 355 250 360C250 365 250 370 250 375C250 380 250 385 250 390C250 395 250 400 250 405C250 410 250 415 250 420C250 425 250 430 250 435C250 440 250 445 250 450" stroke="white" stroke-width="3" fill="none"/>
<path d="M250 210L270 200C275 195 280 190 285 185C290 180 295 175 300 170" stroke="white" stroke-width="2" fill="none"/>
<path d="M250 210L230 200C225 195 220 190 215 185C210 180 205 175 200 170" stroke="white" stroke-width="2" fill="none"/>
<path d="M250 240L275 230C285 225 295 220 305 215" stroke="white" stroke-width="2" fill="none"/>
<path d="M250 240L225 230C215 225 205 220 195 215" stroke="white" stroke-width="2" fill="none"/>
<path d="M250 270L280 260C295 255 310 250 325 245" stroke="white" stroke-width="2" fill="none"/>
<path d="M250 270L220 260C205 255 190 250 175 245" stroke="white" stroke-width="2" fill="none"/>
<path d="M250 300L290 290C310 285 330 280 350 275" stroke="white" stroke-width="2" fill="none"/>
<path d="M250 300L210 290C190 285 170 280 150 275" stroke="white" stroke-width="2" fill="none"/>
<path d="M120 300C120 250 150 210 190 185C230 160 280 150 330 160C370 170 400 200 420 240C440 280 430 330 400 370C370 410 320 440 270 450C220 460 170 450 130 420C90 390 70 340 80 290" stroke="#4A4A4A" stroke-width="3" fill="none"/>
<path d="M140 320C140 280 165 245 200 225C235 205 275 200 315 210C350 220 380 245 395 280C410 315 405 355 385 385C365 415 335 435 300 445C265 455 225 450 195 430C165 410 145 375 145 340" stroke="#4A4A4A" stroke-width="2" fill="none"/>
<path d="M160 340C160 310 180 285 210 270C240 255 275 250 305 260C335 270 360 290 370 320C380 350 375 380 360 405C345 430 320 445 295 450C270 455 245 450 225 435C205 420 190 395 185 370" stroke="#7DAF6B" stroke-width="2" fill="none"/>
<ellipse cx="250" cy="320" rx="150" ry="80" fill="#4A4A4A"/>
<ellipse cx="320" cy="320" rx="75" ry="40" fill="#7DAF6B" opacity="0.8"/>
<path d="M250 320C280 320 310 325 340 335C370 345 395 360 415 380C395 400 370 415 340 425C310 435 280 440 250 440C220 440 190 435 160 425C130 415 105 400 85 380C105 360 130 345 160 335C190 325 220 320 250 320Z" fill="white"/>
<path d="M250 330C275 330 300 333 323 340C346 347 367 358 385 372C367 386 346 397 323 404C300 411 275 414 250 414C225 414 200 411 177 404C154 397 133 386 115 372C133 358 154 347 177 340C200 333 225 330 250 330Z" fill="#EAEAEA"/>
<path d="M250 335L280 330C290 328 300 327 310 328C315 335 318 342 320 350C315 355 308 358 300 360C290 362 280 363 270 364L250 365" stroke="#7DAF6B" stroke-width="2" fill="none"/>
<path d="M250 335L220 330C210 328 200 327 190 328C185 335 182 342 180 350C185 355 192 358 200 360C210 362 220 363 230 364L250 365" stroke="#7DAF6B" stroke-width="2" fill="none"/>
<path d="M250 350L285 345C300 343 315 342 330 343C338 350 343 358 346 367C340 375 332 382 322 386C310 391 297 394 284 396L250 398" stroke="#7DAF6B" stroke-width="2" fill="none"/>
<path d="M250 350L215 345C200 343 185 342 170 343C162 350 157 358 154 367C160 375 168 382 178 386C190 391 203 394 216 396L250 398" stroke="#7DAF6B" stroke-width="2" fill="none"/>
<path d="M250 375L295 370C315 368 335 367 355 368C368 375 378 385 385 397C380 410 372 422 360 431C345 442 328 450 310 455L250 460" stroke="#7DAF6B" stroke-width="2" fill="none"/>
<path d="M250 375L205 370C185 368 165 367 145 368C132 375 122 385 115 397C120 410 128 422 140 431C155 442 172 450 190 455L250 460" stroke="#7DAF6B" stroke-width="2" fill="none"/>
</g>
<defs>
<clipPath id="clip0_1_2">
<rect width="500" height="500" fill="white"/>
</clipPath>
</defs>
</svg>
